<svg width="641" height="210" viewBox="0 0 641 210" fill="none" xmlns="http://www.w3.org/2000/svg">
<g clip-path="url(#clip0_303_23)">
<path d="M106.08 13.7101C100.01 11.8701 93.57 11.6301 87.23 11.7701C79.31 11.9501 71.42 12.7001 63.53 13.4601C56.63 14.1201 49.53 14.8501 43.48 18.3001C33.48 24.0401 17.63 37.1201 11.28 46.7401C8.13003 51.5301 7.89999 54.99 4.91999 59.89C4.29999 74.89 3.13998 86.1801 6.28998 99.7801C9.53775 113.516 17.9591 125.469 29.8 133.15C38.15 138.52 46.8 148.15 55.8 152.48V157.42C58.27 160.05 55.8 204.87 55.8 208.16C60.89 208.66 85.98 197.67 87.61 192.82C87.61 176.54 86.47 169.2 87.61 152.06C92.85 151.54 94.13 151.38 94.7 152.06C107.35 167.9 119.04 183.2 135.63 194.85C139.02 197.23 156.36 208.35 160.5 208.16C161.56 205.73 155.39 195.6 155.06 191.47C154.89 189.37 153.64 187.54 152.44 185.82L133.27 158.34C128.5 151.51 130.37 144.12 128.79 135.94C128.44 134.12 121.52 132.47 122.27 130.78C123.077 129.243 124.314 127.975 125.83 127.13C131.83 123.29 139.42 121.75 143.94 116.29C145.387 114.458 146.517 112.396 147.28 110.19C149.51 103.841 149.862 96.9828 148.294 90.4382C146.726 83.8936 143.305 77.9399 138.44 73.2901C131.75 67.0901 122.78 63.79 113.74 62.57C104.7 61.35 95.52 62.1001 86.46 63.0901C83.21 63.4401 68.06 58.58 63.29 58.58C60.57 63.31 61.78 82.8101 60.51 89.2101C59.24 95.6101 54.99 109.8 55.77 116.27C55.87 117.12 82.56 103.96 85.62 100.93C85.07 93.6401 86.75 86.7601 89.62 83.3401C91.35 81.2701 121.39 87.0001 127.62 89.5401C129.46 90.2801 129.49 93.5401 130.68 95.1501C131.951 96.9834 132.72 99.1175 132.91 101.34C133.15 104.99 130.61 108.02 130.68 111.67C130.68 113.8 120.09 118.8 112.28 119.59C104.47 120.38 94.03 115.59 86.17 115.38C71.78 115.01 17.31 118.19 32.17 57C58.4 22.39 91.26 38 100.76 51.07C111.11 39.07 118.76 22.2801 124.1 18.9701C114.61 14.6401 109.77 14.8401 106.08 13.7101Z" fill="#E74C3C"/>
<path d="M236.52 18.7002L234.87 31.9802H262.16L260.07 49.3202H232.72L231.09 62.4902H263.76L261.44 81.1502H205.84L215.84 -0.0297852H271.43L269.1 18.6702L236.52 18.7002Z" fill="#707070"/>
<path d="M344.44 81.1502H324.03L308.03 52.3702C305.45 47.7002 302.5 42.1602 300.03 37.2402L299.03 37.6102C299.39 40.1902 298.78 45.7302 297.92 52.3702L294.38 81.1502H272.38L282.38 -0.0297852H300.38L318.46 31.8302C321.16 36.6302 325.22 44.8302 326.46 47.8302L327.32 47.4602C326.95 44.8802 327.57 38.4602 328.43 31.8402L332.37 -0.0197754H354.44L344.44 81.1502Z" fill="#707070"/>
<path d="M418.12 81.9202C389.95 81.9202 403.48 50.6802 386.63 50.6802H384.17L380.44 81.1502H357.44L367.44 -0.0297852H390.44L386.38 32.9702H389.44C401 32.9702 407.15 28.5402 410.6 -0.0297852H432.6C429.6 24.2002 421.41 34.9002 411.6 40.6902C422.05 49.6902 415.9 63.4402 427.71 63.4402H431.44L429.23 80.7802C429.23 80.7802 425.87 81.9202 418.12 81.9202Z" fill="#707070"/>
<path d="M447.02 0H469.44L459.44 81.15H437.06L447.02 0Z" fill="#707070"/>
<path d="M228.18 131.98L226.18 148.18H259.44L256.89 169.33H223.54L221.54 185.38H261.44L258.54 208.15H190.74L202.89 109.15H270.69L267.84 131.94L228.18 131.98Z" fill="#707070"/>
<path d="M359.79 208.15H334.89L315.39 173.05C312.24 167.35 308.64 160.6 305.64 154.6L304.44 155.05C304.89 158.2 304.14 164.95 303.09 173.05L298.74 208.15H271.89L284.04 109.15H305.94L327.94 147.99C331.24 153.84 336.19 163.89 337.69 167.49L338.69 167.04C338.24 163.89 338.99 156.09 340.04 148.04L344.84 109.2H371.84L359.79 208.15Z" fill="#707070"/>
<path d="M467.44 151.48C467.44 184.78 450.34 208.18 417.44 208.18H375.6L387.75 109.18H425.84C453.68 109.15 467.44 126.73 467.44 151.48ZM438.94 153.28C438.94 137.98 431.59 130.78 418.24 130.78H413.24L406.32 186.58H415.55C431.63 186.58 438.98 175.93 438.98 153.28H438.94Z" fill="#707070"/>
<path d="M510.32 131.98L508.32 148.18H541.59L539.04 169.33H505.7L503.7 185.38H543.53L540.68 208.18H472.89L485.04 109.18H552.83L549.98 131.97L510.32 131.98Z" fill="#707070"/>
<path d="M619.21 173.15C627.15 176.08 625.88 186.87 636.53 186.87C637.586 186.851 638.639 186.751 639.68 186.57L638.48 208.02C638.48 208.02 634.48 209.37 625.13 209.37C593.33 209.37 605.33 178.02 587.03 178.02H585.8L582.08 208.15H554.03L566.18 109.15H602.44C627.44 109.15 640.09 118.6 640.09 139.3C640.09 156.3 633.09 167.35 619.17 173.13L619.21 173.15ZM588.13 159.15H592.73C604.73 159.15 612.53 153.6 612.53 143.4C612.53 135.15 607.13 130.65 597.98 130.65H591.64L588.13 159.15Z" fill="#707070"/>
<path d="M128.77 135.95L168 192.84L160.44 208.15L108.31 135.29C112.44 136.97 121.44 137.45 128.77 135.95Z" fill="#C0392B"/>
<path d="M108.35 135.32L160.44 208.15H133.37L94.68 152.05H87.5901V192.81H63.3V137.15C52.7817 135.074 42.8898 130.582 34.4051 124.028C25.9205 117.474 19.0753 109.037 14.4098 99.3841C9.74427 89.7311 7.38617 79.1259 7.52164 68.4055C7.6571 57.6851 10.2824 47.1429 15.1903 37.6109C20.0983 28.0789 27.1544 19.8181 35.802 13.4805C44.4495 7.14282 54.4518 2.90185 65.0193 1.09221C75.5867 -0.717432 86.4302 -0.046205 96.6938 3.05296C106.957 6.15213 116.36 11.5944 124.16 18.9502L112.83 30.9502L108.35 35.7102C102.566 30.252 95.4686 26.3822 87.7473 24.4767C80.026 22.5712 71.9432 22.6947 64.2838 24.8353C56.6243 26.9758 49.6486 31.0606 44.0339 36.693C38.4192 42.3255 34.3564 49.3141 32.24 56.9802C30.0081 65.0511 30.0156 73.5773 32.2618 81.6442C34.508 89.7111 38.9081 97.0143 44.99 102.77C48.1551 105.769 51.8029 108.213 55.7801 110V116.25H78.11L79.36 113.68L120.99 114.38C123.223 114.435 125.445 114.042 127.525 113.225C129.604 112.408 131.499 111.183 133.098 109.623C134.697 108.063 135.967 106.198 136.835 104.14C137.702 102.081 138.149 99.8693 138.149 97.6352C138.149 95.4011 137.702 93.1896 136.835 91.1308C135.967 89.0721 134.697 87.2076 133.098 85.6473C131.499 84.087 129.604 82.8623 127.525 82.0453C125.445 81.2284 123.223 80.8356 120.99 80.8902H85.63V100.89H63.3V58.5802H120.99C123.338 58.5784 125.681 58.7927 127.99 59.2202C134.651 60.4347 140.882 63.359 146.073 67.7065C151.264 72.0541 155.236 77.6757 157.6 84.0204C159.965 90.3652 160.64 97.2153 159.56 103.9C158.48 110.584 155.682 116.873 151.44 122.15C146.12 128.793 138.773 133.513 130.52 135.59C130.24 135.66 129.95 135.74 129.66 135.79L128.9 135.96H128.79C121.44 137.45 112.44 136.97 108.35 135.32Z" fill="#E74C3C"/>
<path d="M135.96 89.1499C138.161 92.8604 138.844 97.2778 137.866 101.48C136.888 105.682 134.324 109.343 130.71 111.7C130.38 107.394 128.399 103.383 125.18 100.504C121.962 97.6247 117.756 96.1006 113.44 96.2499H85.63V80.9099H120.99C123.995 80.8166 126.969 81.5321 129.602 82.9817C132.236 84.4312 134.432 86.5615 135.96 89.1499Z" fill="#C0392B"/>
<path d="M128.88 135.93L129.64 135.76C129.44 135.83 129.14 135.88 128.88 135.93Z" fill="#C0392B"/>
<path d="M124.16 18.96L116.63 34.31L100.82 51.07L108.34 35.73L112.83 30.97L124.16 18.96Z" fill="#C0392B"/>
<path d="M108.35 35.7302L100.82 51.0702C92.2229 42.9625 80.8422 38.4633 69.0251 38.5005C57.208 38.5377 45.8559 43.1085 37.31 51.2702C35.4622 53.0345 33.7662 54.9512 32.24 57.0002C34.3564 49.334 38.4192 42.3454 44.0339 36.713C49.6486 31.0806 56.6243 26.9958 64.2838 24.8553C71.9432 22.7147 80.026 22.5912 87.7473 24.4967C95.4685 26.4022 102.566 30.272 108.35 35.7302Z" fill="#C0392B"/>
<path d="M87.59 192.84L80.07 208.18H55.77L63.3 192.84H80.07H87.59Z" fill="#C0392B"/>
<path d="M85.63 100.92L79.36 113.7L78.1 116.27H55.77L63.3 100.92H78.1H85.63Z" fill="#C0392B"/>
<path d="M63.3 137.16V192.84L55.77 208.18V152.5L63.3 137.16Z" fill="#C0392B"/>
<path d="M63.3 73.9201V100.92L55.77 116.27V110.02V73.9201L63.3 58.5801V73.9201Z" fill="#C0392B"/>
<path d="M63.3 137.15L55.78 152.49C44.6653 150.294 34.2597 145.403 25.4775 138.246C16.6952 131.088 9.80487 121.884 5.41178 111.441C1.01869 100.997 -0.742729 89.6353 0.282202 78.3523C1.30713 67.0693 5.08703 56.2106 11.29 46.73C8.07339 56.0738 6.89508 65.9981 7.83427 75.8354C8.77345 85.6726 11.8083 95.1947 16.7348 103.761C21.6613 112.328 28.3652 119.74 36.3954 125.499C44.4257 131.258 53.5961 135.231 63.29 137.15H63.3Z" fill="#C0392B"/>
<path d="M17.79 104.53C15.7784 101.105 14.0526 97.5192 12.63 93.8102C9.96013 86.3068 8.51496 78.4227 8.34999 70.4602C7.96999 60.9302 11.28 46.7402 11.28 46.7402C10.48 48.6902 6.84999 60.0602 6.84999 70.4702C6.82285 78.632 8.25543 86.7328 11.08 94.3902C12.489 98.2256 14.2779 101.911 16.42 105.39C16.75 105.98 17.13 106.54 17.49 107.08C17.69 107.37 17.89 107.66 18.09 107.97C18.09 107.97 24.77 119.28 43.77 130.19C41.6 129.07 25.71 118.41 17.79 104.53Z" fill="#EA7E78"/>
<path d="M138.71 94.4402C138.09 91.0434 136.47 87.909 134.057 85.4381C131.645 82.9672 128.551 81.2723 125.17 80.5702C124.68 80.4702 124.28 80.4002 123.91 80.3602C123.486 80.2972 123.059 80.2571 122.63 80.2402C122.1 80.2402 121.56 80.2402 121.04 80.2402H120.11L85.63 80.9302L120.11 81.6102H120.91C121.47 81.6102 122 81.6102 122.53 81.6102C123.06 81.6102 123.31 81.6702 123.72 81.7302C124.13 81.7902 124.48 81.8502 124.87 81.9402C127.959 82.6153 130.783 84.1809 132.992 86.4433C135.201 88.7057 136.699 91.5659 137.3 94.6702C137.864 97.7921 137.517 101.01 136.3 103.94C135.07 106.94 130.66 111.64 130.66 111.64C133.57 109.81 136.16 107.53 137.49 104.45C138.876 101.307 139.3 97.8241 138.71 94.4402Z" fill="#EA7E78"/>
<path d="M148.06 189.53L135.06 171.27L121.97 153.09C117.06 146.34 112.54 140.98 108.33 135.32C108.33 135.32 116.85 148.44 120.75 153.97L133.75 172.23L146.85 190.41L153.44 199.41L160.44 208.13L148.06 189.53Z" fill="#EA7E78"/>
<path d="M78.08 22.3998C72.3957 22.2797 66.736 23.1806 61.37 25.0597C58.64 26.0597 50.53 29.8397 46.93 34.0597C49.203 32.3341 51.6535 30.8558 54.24 29.6498C56.6617 28.3382 59.195 27.2439 61.81 26.3797C67.0337 24.6127 72.5271 23.7767 78.04 23.9098C89.1971 24.2885 99.8904 28.4656 108.35 35.7497C99.08 24.3097 83.84 22.5698 78.08 22.3998Z" fill="#EA7E78"/>
<path d="M566.21 40.58C566.212 48.6088 563.833 56.4579 559.373 63.1344C554.914 69.8109 548.575 75.015 541.158 78.0884C533.741 81.1618 525.578 81.9664 517.704 80.4006C509.829 78.8347 502.596 74.9687 496.919 69.2915C491.241 63.6143 487.375 56.3809 485.809 48.5063C484.244 40.6317 485.048 32.4696 488.122 25.0523C491.195 17.635 496.399 11.2958 503.076 6.83649C509.752 2.37716 517.601 -0.00197655 525.63 1.23209e-06C536.391 0.00530084 546.709 4.2824 554.319 11.8915C561.928 19.5006 566.205 29.8192 566.21 40.58Z" fill="#EEC434"/>
<path d="M516.24 34.6497L511.83 38.6497L510.83 39.5498C510.83 39.5498 509.7 35.1798 508.83 30.1598C507.83 24.2298 507.15 17.3997 509.18 15.8097C509.82 15.3097 510.31 15.2498 510.69 15.5498C511.346 16.332 511.75 17.2939 511.85 18.3097C512.08 19.3097 512.29 20.6097 512.54 22.0197C512.536 22.0429 512.536 22.0666 512.54 22.0898C513.23 25.8398 514.12 30.5197 516.24 34.6497Z" fill="#E74C3C"/>
<path d="M516.24 34.6499L511.83 38.6499C511.65 38.0899 511.45 37.47 511.26 36.8C508 25.73 508.13 19.7999 509.03 17.1899C509.61 15.4999 510.72 15.55 510.72 15.55C511.376 16.3322 511.78 17.2941 511.88 18.3099C512.11 19.3099 512.32 20.6099 512.57 22.0199C512.566 22.0431 512.566 22.0668 512.57 22.0899C513.23 25.8399 514.12 30.5199 516.24 34.6499Z" fill="#C0392B"/>
<path d="M522.93 35.2799L516.53 33.9999C516.53 33.9999 515.6 31.0799 514.8 27.4899C514.74 27.2399 514.69 26.9899 514.64 26.7399C513.93 23.4399 513.4 19.7399 513.79 17.1599C513.877 16.4781 514.094 15.8194 514.43 15.2199C514.579 14.9705 514.772 14.7503 515 14.5699C518.75 11.6299 518.09 25.8599 522.93 35.2799Z" fill="#C0392B"/>
<path d="M514.69 25.5902C514.77 26.2203 514.806 26.8551 514.8 27.4902C514.74 27.2402 514.69 26.9902 514.64 26.7402C513.93 23.4402 513.4 19.7402 513.79 17.1602C513.877 16.4784 514.094 15.8197 514.43 15.2202L515.43 15.6602C515.43 15.6602 514.04 19.2202 514.69 25.5902Z" fill="#E74C3C"/>
<path d="M536.37 29.98C535.82 31.98 535.37 33.32 535.37 33.32L527.56 35C534.04 23.38 532.71 6.50996 537.2 9.99996C537.901 10.6301 538.366 11.4801 538.52 12.41C539.59 16.89 537.64 25.31 536.37 29.98Z" fill="#C0392B"/>
<path d="M528.83 30.62C528.39 35.84 530.3 37.86 528.74 39.62C522.64 46.62 520.55 36.62 520.55 36.62C524.55 23.95 519.98 11.2 525.38 10.91C525.975 10.9 526.555 11.0925 527.026 11.4559C527.496 11.8194 527.829 12.3322 527.97 12.91C529.08 17.44 529.24 25.79 528.83 30.62Z" fill="#C0392B"/>
<path d="M537.66 19.5601C536.353 19.2324 534.999 19.141 533.66 19.2902C533.66 19.2902 536.54 19.4702 537.6 20.3402L537.66 19.5601Z" fill="#E74C3C"/>
<path d="M536.37 29.98C535.18 28.45 535.89 27.6499 536.67 25.1899C538.21 20.3399 537.08 14.1299 537.08 14.1299L538.55 12.4399C539.59 16.8899 537.64 25.31 536.37 29.98Z" fill="#E74C3C"/>
<path d="M542.15 40.3798C541.038 41.3335 539.804 42.134 538.48 42.7598C537.23 43.2869 536.134 44.1234 535.296 45.1905C534.458 46.2576 533.906 47.5203 533.69 48.8598C533.22 52.1298 534.38 52.8598 534.05 55.9198C533.586 61.1565 533.483 66.4189 533.74 71.6698L512.74 70.4098C513.26 68.4098 512.36 55.6498 511.04 50.3398C510.428 48.371 509.934 46.3675 509.56 44.3398C509.282 42.7082 509.316 41.0387 509.66 39.4198C509.768 38.9665 509.918 38.5245 510.11 38.0998C510.805 36.5587 512.081 35.3546 513.66 34.7498C520.08 32.0798 517.84 36.0698 531.36 33.5098L532.59 33.2598C536.85 32.3898 539.89 32.4398 541.85 33.0598C545.6 34.2398 545.37 37.5198 542.15 40.3798Z" fill="#E74C3C"/>
<path d="M544.98 26.6401V26.4701C545.17 25.5701 546.09 21.1202 545.87 21.0402C545.261 21.0338 544.652 21.0773 544.05 21.1702L544.98 26.6401Z" fill="#E76C4A"/>
<path d="M539.07 42.47L537.47 33.32C537.47 33.08 537.47 32.84 537.47 32.61C537.47 20.2 542.99 19 544.9 20.43C545.062 20.5819 545.192 20.7644 545.283 20.967C545.374 21.1695 545.424 21.3881 545.43 21.61C545.11 25.3552 545.302 29.1265 546 32.82C546.127 33.451 546.318 34.0676 546.57 34.66C548.44 38.3 539.07 42.47 539.07 42.47Z" fill="#E74C3C"/>
<path d="M514.36 20.9999C514.36 20.9999 515.2 20.4299 517.84 20.5299C516.659 20.2303 515.421 20.2303 514.24 20.5299L514.36 20.9999Z" fill="#E74C3C"/>
<path d="M508.22 23.6802C509.335 23.0323 510.6 22.6876 511.89 22.6802C511.89 22.6802 509.21 23.8102 508.54 24.9302L508.22 23.6802Z" fill="#E74C3C"/>
<path d="M544.92 20.4301C544.494 21.2305 544.159 22.0756 543.92 22.9501C543.2 26.3501 543.92 33.3201 543.92 33.3201C542.01 32.9701 537.48 32.6101 537.48 32.6101C537.48 31.4601 537.48 30.4101 537.58 29.4501C537.58 29.0701 537.68 28.7101 537.73 28.3501C538.85 19.9301 543.21 19.1501 544.92 20.4301Z" fill="#C0392B"/>
<path d="M534.05 80.2899C526.592 81.8652 518.842 81.3178 511.68 78.7099C511.44 62.6499 513.08 61.7099 511.13 50.7099C510.87 49.2399 510 47.0299 509.66 45.0099C509.66 44.7999 509.59 44.5899 509.56 44.3799C510.74 46.8599 514.9 50.9499 521.97 53.3099C525.302 54.4042 528.214 56.5024 530.307 59.3168C532.4 62.1311 533.571 65.5238 533.66 69.0299C533.78 74.2699 534.04 78.3399 534.05 80.2899Z" fill="#C0392B"/>
<path d="M542.15 40.3799C541.038 41.3336 539.804 42.1341 538.48 42.7599C537.252 43.3197 536.176 44.1657 535.343 45.2271C534.509 46.2885 533.943 47.5343 533.69 48.8599C526.11 47.2299 524.59 42.4699 524.59 42.4699C530.34 44.1499 538.72 41.5899 542.15 40.3799Z" fill="#C0392B"/>
<path d="M538.44 29.1499C538.44 29.1499 540.14 30.3999 543.85 30.3399C543.85 29.9499 543.85 29.5899 543.91 29.2299C542.108 29.6509 540.229 29.6234 538.44 29.1499Z" fill="#E74C3C"/>
<path d="M525.44 13.1498C525.94 14.8998 527.75 15.8498 528.71 17.3298C528.574 15.8922 528.34 14.4655 528.01 13.0598C527.925 12.69 527.76 12.3438 527.524 12.0462C527.289 11.7487 526.99 11.5073 526.65 11.3398C525.89 11.8898 525.22 12.4998 525.44 13.1498Z" fill="#E74C3C"/>
<path d="M528.83 33.95C528.729 32.8422 528.729 31.7277 528.83 30.6199C529.134 26.4007 529.101 22.1639 528.73 17.95C527.01 17.95 525.21 17.43 523.5 18.24C524.91 17.9808 526.367 18.2514 527.59 18.9999C529.31 20.2399 528.45 22.9099 527.78 24.8099C527.278 25.89 526.528 26.8358 525.59 27.57C524.59 28.62 525.21 30.33 524.26 31.47C523.31 32.61 522.26 33.47 521.26 34.33C523.789 34.4969 526.33 34.3694 528.83 33.95Z" fill="#E74C3C"/>
<path d="M542.12 33.32C538.12 32.4 534.57 33.64 532.12 34.24C527.887 35.3079 523.473 35.4511 519.18 34.66C512.63 33.66 509.68 39.33 509.64 39.41C509.748 38.9567 509.898 38.5147 510.09 38.09C510.785 36.5489 512.061 35.3448 513.64 34.74C520.06 32.07 517.82 36.06 531.34 33.5L532.57 33.25C536.83 32.38 539.87 32.43 541.83 33.05C542.1 33.2 542.12 33.32 542.12 33.32Z" fill="#E76C4A"/>
<path d="M532.18 33.3398C532.18 33.1198 532.18 32.8899 532.18 32.6599C532.18 29.3099 529.12 26.5898 525.33 26.5898C521.54 26.5898 518.49 29.3099 518.49 32.6599C518.485 33.0675 518.532 33.474 518.63 33.8698C520.827 34.3596 523.086 34.5147 525.33 34.3298C526.19 34.2398 527.77 34.0898 529.33 33.8398C530.89 33.5898 532.18 33.3398 532.18 33.3398Z" fill="#15BDFF"/>
<path d="M532.29 27.3602C532.258 27.3609 532.227 27.355 532.198 27.343C532.168 27.3309 532.142 27.313 532.12 27.2902C532.074 27.2435 532.049 27.1807 532.049 27.1152C532.049 27.0498 532.074 26.9869 532.12 26.9402L534.36 24.3702C534.382 24.3463 534.41 24.3272 534.44 24.3142C534.47 24.3012 534.502 24.2944 534.535 24.2944C534.568 24.2944 534.6 24.3012 534.63 24.3142C534.66 24.3272 534.688 24.3463 534.71 24.3702C534.734 24.3935 534.753 24.4215 534.767 24.4524C534.78 24.4833 534.787 24.5166 534.787 24.5502C534.787 24.5838 534.78 24.6171 534.767 24.648C534.753 24.6789 534.734 24.7069 534.71 24.7302L532.47 27.3002C532.42 27.3431 532.356 27.3647 532.29 27.3602Z" fill="#15BDFF"/>
<path d="M533.85 30.2098C533.8 30.2091 533.752 30.1936 533.711 30.165C533.67 30.1365 533.638 30.0964 533.62 30.0498C533.607 30.019 533.6 29.9859 533.6 29.9525C533.6 29.919 533.607 29.886 533.62 29.8552C533.633 29.8245 533.652 29.7966 533.676 29.7734C533.7 29.7501 533.729 29.7319 533.76 29.7198L537.29 28.2798C537.321 28.2668 537.354 28.2602 537.387 28.2603C537.421 28.2603 537.454 28.267 537.485 28.2801C537.515 28.2931 537.543 28.3122 537.566 28.3362C537.59 28.3602 537.608 28.3886 537.62 28.4198C537.643 28.4809 537.641 28.5485 537.615 28.6083C537.589 28.6681 537.541 28.7153 537.48 28.7398L533.95 30.1898L533.85 30.2098Z" fill="#15BDFF"/>
<path d="M525.33 25.4398C525.263 25.4372 525.199 25.4087 525.153 25.3602C525.106 25.3117 525.08 25.2471 525.08 25.1799V20.5898C525.08 20.5235 525.106 20.46 525.153 20.4131C525.2 20.3662 525.264 20.3398 525.33 20.3398C525.397 20.3424 525.461 20.371 525.507 20.4194C525.554 20.4679 525.58 20.5326 525.58 20.5999V25.1898C525.578 25.2553 525.55 25.3175 525.504 25.3639C525.458 25.4103 525.396 25.4373 525.33 25.4398Z" fill="#15BDFF"/>
<path d="M521.61 26.15C521.542 26.1469 521.478 26.1183 521.43 26.0699L518.62 23.2C518.596 23.1775 518.577 23.1504 518.564 23.1203C518.551 23.0902 518.544 23.0578 518.544 23.025C518.544 22.9922 518.551 22.9597 518.564 22.9296C518.577 22.8995 518.596 22.8724 518.62 22.85C518.643 22.8258 518.671 22.8065 518.702 22.7934C518.733 22.7803 518.766 22.7734 518.8 22.7734C518.834 22.7734 518.867 22.7803 518.898 22.7934C518.929 22.8065 518.957 22.8258 518.98 22.85L521.79 25.72C521.814 25.7424 521.833 25.7695 521.846 25.7996C521.859 25.8297 521.866 25.8622 521.866 25.895C521.866 25.9278 521.859 25.9602 521.846 25.9903C521.833 26.0204 521.814 26.0475 521.79 26.0699C521.767 26.0948 521.739 26.1147 521.708 26.1284C521.677 26.1422 521.644 26.1495 521.61 26.15Z" fill="#15BDFF"/>
<path d="M518.44 27.8002H518.32L515.77 26.4802C515.71 26.4497 515.665 26.3967 515.645 26.3329C515.624 26.2692 515.629 26.1998 515.66 26.1401C515.69 26.0805 515.743 26.0353 515.807 26.0147C515.871 25.9941 515.94 25.9996 516 26.0301L518.55 27.3502C518.581 27.3638 518.608 27.3839 518.631 27.4089C518.653 27.434 518.67 27.4635 518.681 27.4956C518.691 27.5277 518.695 27.5616 518.691 27.5951C518.688 27.6286 518.677 27.661 518.66 27.6901C518.636 27.7259 518.603 27.7548 518.564 27.774C518.526 27.7933 518.483 27.8023 518.44 27.8002Z" fill="#15BDFF"/>
<path d="M514.44 31.6799C514.381 31.6682 514.328 31.6363 514.29 31.5898C514.252 31.5433 514.231 31.4851 514.231 31.4249C514.231 31.3648 514.252 31.3064 514.29 31.2599C514.328 31.2135 514.381 31.1817 514.44 31.1699H517.07C517.129 31.1817 517.182 31.2135 517.22 31.2599C517.258 31.3064 517.279 31.3648 517.279 31.4249C517.279 31.4851 517.258 31.5433 517.22 31.5898C517.182 31.6363 517.129 31.6682 517.07 31.6799H514.44Z" fill="#15BDFF"/>
</g>
<defs>
<clipPath id="clip0_303_23">
<rect width="640.13" height="209.38" fill="white"/>
</clipPath>
</defs>
</svg>
